<?xml version="1.0" encoding="utf-8"?>
<svg xmlns="http://www.w3.org/2000/svg" viewBox="0 0 50 50" width="48" height="48">
  <path d="M13.984375 2.984375C13.433594 2.996094 12.992188 3.449219 13 4L13 5L12 5C11.640625 4.996094 11.304688 5.183594 11.121094 5.496094C10.941406 5.808594 10.941406 6.191406 11.121094 6.503906C11.304688 6.816406 11.640625 7.003906 12 7L13 7L13 8C12.996094 8.359375 13.183594 8.695313 13.496094 8.878906C13.808594 9.058594 14.191406 9.058594 14.503906 8.878906C14.816406 8.695313 15.003906 8.359375 15 8L15 7L16 7C16.359375 7.003906 16.695313 6.816406 16.878906 6.503906C17.058594 6.191406 17.058594 5.808594 16.878906 5.496094C16.695313 5.183594 16.359375 4.996094 16 5L15 5L15 4C15.003906 3.730469 14.898438 3.46875 14.707031 3.277344C14.515625 3.085938 14.253906 2.980469 13.984375 2.984375 Z M 35.976563 5.015625C35.171875 5.015625 35 5.441406 35 5.96875L35 16.984375C35 18.101563 35 18.984375 33 18.984375C30.144531 18.984375 29 20.203125 29 21.984375C29 23.1875 29.246094 24.984375 33 24.984375C36.753906 24.984375 37 22.339844 37 20.984375L37 11.019531C37 10.328125 37.058594 9.984375 37.460938 9.984375C40.046875 9.984375 40.433594 11.933594 44.019531 11.933594C44.019531 11.933594 44.984375 11.96875 44.984375 11.019531L44.984375 7.960938C44.984375 7.1875 44.640625 7.007813 44 7.007813C40.421875 7.007813 39.332031 5.015625 35.976563 5.015625 Z M 19.921875 11.003906C19.828125 11.011719 19.730469 11.03125 19.640625 11.066406C12.675781 13.761719 8 20.769531 8 28.5C8 38.699219 16.300781 47 26.5 47C34.230469 47 41.238281 42.324219 43.933594 35.359375C44.074219 34.992188 43.988281 34.574219 43.707031 34.292969C43.429688 34.011719 43.007813 33.921875 42.640625 34.066406C41.039063 34.683594 38.976563 35 36.5 35C27.402344 35 20 27.597656 20 18.5C20 16.023438 20.3125 13.960938 20.933594 12.359375C21.074219 11.992188 20.988281 11.574219 20.707031 11.292969C20.496094 11.082031 20.210938 10.980469 19.921875 11.003906 Z M 5.984375 14.984375C5.433594 14.996094 4.992188 15.449219 5 16C4.640625 15.996094 4.304688 16.183594 4.121094 16.496094C3.941406 16.808594 3.941406 17.191406 4.121094 17.503906C4.304688 17.816406 4.640625 18.003906 5 18C4.996094 18.359375 5.183594 18.695313 5.496094 18.878906C5.808594 19.058594 6.191406 19.058594 6.503906 18.878906C6.816406 18.695313 7.003906 18.359375 7 18C7.359375 18.003906 7.695313 17.816406 7.878906 17.503906C8.058594 17.191406 8.058594 16.808594 7.878906 16.496094C7.695313 16.183594 7.359375 15.996094 7 16C7.003906 15.730469 6.898438 15.46875 6.707031 15.277344C6.515625 15.085938 6.253906 14.980469 5.984375 14.984375Z" fill="#FFFFFF" />
</svg>