<?xml version="1.0" encoding="utf-8"?>
<svg xmlns="http://www.w3.org/2000/svg" viewBox="0 0 24 24" width="48" height="48">
  <path d="M16 3L16 14.125C15.410156 13.976563 14.730469 13.949219 14 14.125C11.789063 14.652344 10 16.609375 10 18.46875C10 20.328125 11.789063 21.402344 14 20.875C16.148438 20.359375 17.875 18.5 17.96875 16.6875L18 16.6875L18 7L22 7L22 3 Z M 2 4L2 6L15 6L15 4 Z M 2 9L2 11L15 11L15 9 Z M 2 14L2 16L9.75 16C10.242188 15.21875 10.972656 14.527344 11.8125 14 Z M 2 19L2 21L10.125 21C9.539063 20.472656 9.179688 19.785156 9.0625 19Z" fill="#FFFFFF" />
</svg>