<?xml version="1.0" encoding="utf-8"?>
<svg xmlns="http://www.w3.org/2000/svg" viewBox="0 0 48 48" width="48" height="48">
  <path d="M35.978516 3.9804688 A 2.0002 2.0002 0 0 0 34.585938 7.4140625L37.171875 10L10 10C6.69 10 4 12.69 4 16L4 30.919922L8 26.919922L8 16C8 14.9 8.9 14 10 14L37.171875 14L34.585938 16.585938 A 2.0002 2.0002 0 1 0 37.414062 19.414062L43.414062 13.414062 A 2.0002 2.0002 0 0 0 43.414062 10.585938L37.414062 4.5859375 A 2.0002 2.0002 0 0 0 35.978516 3.9804688 z M 24.375 17.025391C24.257547 17.035281 24.139641 17.059406 24.025391 17.097656L21.025391 18.097656C20.239391 18.359656 19.814172 19.208141 20.076172 19.994141C20.338172 20.780141 21.190609 21.208359 21.974609 20.943359L23 20.601562L23 29.419922C23 30.248922 23.671 30.919922 24.5 30.919922C25.329 30.919922 26 30.248922 26 29.419922L26 18.519531C26 18.038531 25.767953 17.584734 25.376953 17.302734C25.082953 17.091234 24.727359 16.995719 24.375 17.025391 z M 44 17.080078L40 21.080078L40 32C40 33.1 39.1 34 38 34L10.828125 34L13.414062 31.414062 A 2.0002 2.0002 0 0 0 11.960938 27.980469 A 2.0002 2.0002 0 0 0 10.585938 28.585938L4.5859375 34.585938 A 2.0002 2.0002 0 0 0 4.5859375 37.414062L10.585938 43.414062 A 2.0002 2.0002 0 1 0 13.414062 40.585938L10.828125 38L38 38C41.31 38 44 35.31 44 32L44 17.080078 z" fill="#FFFFFF" />
</svg>